<mxfile host="app.diagrams.net" modified="2024-05-13T20:18:15.301Z" agent="Mozilla/5.0 (Windows NT 10.0; Win64; x64) AppleWebKit/537.36 (KHTML, like Gecko) Chrome/124.0.0.0 Safari/537.36" etag="Bheyfo4wzHVCzzR00yR_" version="24.4.0" type="device">
  <diagram id="prtHgNgQTEPvFCAcTncT" name="Page-1">
    <mxGraphModel dx="880" dy="468" grid="1" gridSize="10" guides="1" tooltips="1" connect="1" arrows="1" fold="1" page="1" pageScale="1" pageWidth="827" pageHeight="1169" math="0" shadow="0">
      <root>
        <mxCell id="0" />
        <mxCell id="1" parent="0" />
        <mxCell id="dNxyNK7c78bLwvsdeMH5-11" value="WEB-Browser - Inicio&amp;nbsp;" style="swimlane;html=1;startSize=20;horizontal=1;containerType=tree;glass=0;fillColor=#f8cecc;strokeColor=#b85450;swimlaneFillColor=#66FF66;gradientColor=none;" parent="1" vertex="1">
          <mxGeometry x="44" y="10" width="740" height="280" as="geometry" />
        </mxCell>
        <mxCell id="IlKMJ6naBg7NHXf0W0cz-1" value="Meus Pedidos" style="rounded=0;whiteSpace=wrap;html=1;fillColor=#60a917;fontColor=#ffffff;strokeColor=#2D7600;" vertex="1" parent="dNxyNK7c78bLwvsdeMH5-11">
          <mxGeometry y="90" width="120" height="60" as="geometry" />
        </mxCell>
        <mxCell id="IlKMJ6naBg7NHXf0W0cz-2" value="Formas de pagamento" style="rounded=0;whiteSpace=wrap;html=1;fillColor=#e51400;fontColor=#ffffff;strokeColor=#B20000;" vertex="1" parent="dNxyNK7c78bLwvsdeMH5-11">
          <mxGeometry y="210" width="120" height="60" as="geometry" />
        </mxCell>
        <mxCell id="IlKMJ6naBg7NHXf0W0cz-4" value="Personalização de Cupcakes" style="rounded=0;whiteSpace=wrap;html=1;fillColor=#d0cee2;strokeColor=#56517e;" vertex="1" parent="dNxyNK7c78bLwvsdeMH5-11">
          <mxGeometry x="620" y="90" width="120" height="60" as="geometry" />
        </mxCell>
        <mxCell id="IlKMJ6naBg7NHXf0W0cz-5" value="Suporte ao Cliente" style="rounded=0;whiteSpace=wrap;html=1;fillColor=#60a917;fontColor=#ffffff;strokeColor=#2D7600;" vertex="1" parent="dNxyNK7c78bLwvsdeMH5-11">
          <mxGeometry x="310" y="90" width="120" height="60" as="geometry" />
        </mxCell>
        <mxCell id="IlKMJ6naBg7NHXf0W0cz-6" value="Perfil" style="rounded=0;whiteSpace=wrap;html=1;fillColor=#ffcd28;strokeColor=#d79b00;gradientColor=#ffa500;" vertex="1" parent="dNxyNK7c78bLwvsdeMH5-11">
          <mxGeometry x="620" y="210" width="120" height="60" as="geometry" />
        </mxCell>
        <mxCell id="IlKMJ6naBg7NHXf0W0cz-7" value="AUTOMATION CUPCAKES" style="rounded=0;whiteSpace=wrap;html=1;fontStyle=7;labelBackgroundColor=#FF6666;labelBorderColor=default;fillColor=#f5f5f5;gradientColor=#b3b3b3;strokeColor=#666666;" vertex="1" parent="dNxyNK7c78bLwvsdeMH5-11">
          <mxGeometry x="130" y="20" width="480" height="60" as="geometry" />
        </mxCell>
        <mxCell id="IlKMJ6naBg7NHXf0W0cz-15" value="Recibo de Pedido" style="rounded=0;whiteSpace=wrap;html=1;fillColor=#d5e8d4;gradientColor=#97d077;strokeColor=#82b366;" vertex="1" parent="dNxyNK7c78bLwvsdeMH5-11">
          <mxGeometry x="310" y="210" width="120" height="60" as="geometry" />
        </mxCell>
        <mxCell id="IlKMJ6naBg7NHXf0W0cz-8" value="WEB-Browser - SOBRE_TELA_01&amp;nbsp;" style="swimlane;html=1;startSize=20;horizontal=1;containerType=tree;glass=0;fillColor=#f8cecc;strokeColor=#b85450;swimlaneFillColor=#FFFFFF;" vertex="1" parent="1">
          <mxGeometry x="80" y="560" width="740" height="600" as="geometry" />
        </mxCell>
        <mxCell id="IlKMJ6naBg7NHXf0W0cz-9" value="Meus Pedidos\sabores" style="rounded=0;whiteSpace=wrap;html=1;fillColor=#60a917;fontColor=#ffffff;strokeColor=#2D7600;" vertex="1" parent="IlKMJ6naBg7NHXf0W0cz-8">
          <mxGeometry x="617" y="325" width="120" height="60" as="geometry" />
        </mxCell>
        <mxCell id="IlKMJ6naBg7NHXf0W0cz-10" value="Formas de pagamento\credito&lt;div&gt;Pix\debito&lt;/div&gt;" style="rounded=0;whiteSpace=wrap;html=1;fillColor=#e51400;fontColor=#ffffff;strokeColor=#B20000;" vertex="1" parent="IlKMJ6naBg7NHXf0W0cz-8">
          <mxGeometry y="530" width="120" height="60" as="geometry" />
        </mxCell>
        <mxCell id="IlKMJ6naBg7NHXf0W0cz-11" value="Personalização de Cupcakes\tipos\&lt;div&gt;mix_sabores&lt;/div&gt;" style="rounded=0;whiteSpace=wrap;html=1;fillColor=#d0cee2;strokeColor=#56517e;" vertex="1" parent="IlKMJ6naBg7NHXf0W0cz-8">
          <mxGeometry x="617" y="145" width="120" height="60" as="geometry" />
        </mxCell>
        <mxCell id="IlKMJ6naBg7NHXf0W0cz-12" value="Suporte ao Cliente\reclamação\&lt;div&gt;pedidos incorretos\&lt;/div&gt;" style="rounded=0;whiteSpace=wrap;html=1;fillColor=#60a917;fontColor=#ffffff;strokeColor=#2D7600;" vertex="1" parent="IlKMJ6naBg7NHXf0W0cz-8">
          <mxGeometry x="617" y="265" width="120" height="60" as="geometry" />
        </mxCell>
        <mxCell id="IlKMJ6naBg7NHXf0W0cz-13" value="Perfil\dados pessoais\&lt;div&gt;foto&lt;/div&gt;" style="rounded=0;whiteSpace=wrap;html=1;fillColor=#ffcd28;strokeColor=#d79b00;gradientColor=#ffa500;" vertex="1" parent="IlKMJ6naBg7NHXf0W0cz-8">
          <mxGeometry y="250" width="120" height="60" as="geometry" />
        </mxCell>
        <mxCell id="IlKMJ6naBg7NHXf0W0cz-14" value="AUTOMATION CUPCAKES" style="rounded=0;whiteSpace=wrap;html=1;fontStyle=7;labelBackgroundColor=#FF6666;labelBorderColor=default;fillColor=#f5f5f5;gradientColor=#b3b3b3;strokeColor=#666666;" vertex="1" parent="IlKMJ6naBg7NHXf0W0cz-8">
          <mxGeometry x="130" y="20" width="480" height="65" as="geometry" />
        </mxCell>
        <mxCell id="IlKMJ6naBg7NHXf0W0cz-24" value="&lt;b&gt;&lt;i&gt;&lt;u&gt;Nome usuário: XXXXXXX&amp;nbsp; &amp;nbsp; &amp;nbsp; &amp;nbsp; &amp;nbsp; &amp;nbsp; &amp;nbsp; &amp;nbsp; &amp;nbsp; &amp;nbsp; &amp;nbsp; &amp;nbsp; &amp;nbsp; &amp;nbsp; &amp;nbsp; &amp;nbsp; &amp;nbsp; &amp;nbsp; &amp;nbsp; &amp;nbsp; &amp;nbsp; &amp;nbsp; &amp;nbsp; &amp;nbsp; &amp;nbsp; &amp;nbsp; &amp;nbsp; &amp;nbsp; &amp;nbsp; &amp;nbsp; &amp;nbsp; &amp;nbsp; &amp;nbsp; &amp;nbsp; &amp;nbsp; &amp;nbsp; &amp;nbsp; &amp;nbsp; &amp;nbsp; &amp;nbsp; &amp;nbsp; &amp;nbsp; &amp;nbsp; &amp;nbsp; &amp;nbsp; &amp;nbsp; &amp;nbsp; &amp;nbsp; &amp;nbsp;&lt;/u&gt;&lt;/i&gt;&lt;/b&gt;&lt;div&gt;&lt;b&gt;&lt;i&gt;&lt;u&gt;&lt;br&gt;&lt;/u&gt;&lt;/i&gt;&lt;/b&gt;&lt;div&gt;&lt;b&gt;&lt;i&gt;&lt;u&gt;N pedidos:&amp;nbsp;&lt;span style=&quot;&quot;&gt;XXXXXXX&lt;/span&gt;&lt;/u&gt;&lt;/i&gt;&lt;/b&gt;&lt;/div&gt;&lt;div&gt;&lt;b&gt;&lt;i&gt;&lt;u&gt;&lt;span style=&quot;&quot;&gt;&lt;br&gt;&lt;/span&gt;&lt;/u&gt;&lt;/i&gt;&lt;/b&gt;&lt;/div&gt;&lt;div&gt;&lt;b&gt;&lt;i&gt;&lt;u&gt;Endereço:&amp;nbsp;&lt;span style=&quot;&quot;&gt;XXXXXXX&lt;/span&gt;&lt;/u&gt;&lt;/i&gt;&lt;/b&gt;&lt;/div&gt;&lt;div&gt;&lt;b&gt;&lt;i&gt;&lt;u&gt;&lt;span style=&quot;&quot;&gt;&lt;br&gt;&lt;/span&gt;&lt;/u&gt;&lt;/i&gt;&lt;/b&gt;&lt;/div&gt;&lt;div&gt;&lt;b&gt;&lt;i&gt;&lt;u&gt;Telefone:&amp;nbsp;&lt;span style=&quot;&quot;&gt;XXXXXXX&lt;/span&gt;&lt;/u&gt;&lt;/i&gt;&lt;/b&gt;&lt;/div&gt;&lt;div&gt;&lt;b&gt;&lt;i&gt;&lt;u&gt;&lt;span style=&quot;&quot;&gt;&lt;br&gt;&lt;/span&gt;&lt;/u&gt;&lt;/i&gt;&lt;/b&gt;&lt;/div&gt;&lt;div&gt;&lt;b&gt;&lt;i&gt;&lt;u&gt;E-mail:&amp;nbsp;&lt;span style=&quot;&quot;&gt;XXXXXXX&lt;/span&gt;&lt;/u&gt;&lt;/i&gt;&lt;/b&gt;&lt;/div&gt;&lt;/div&gt;&lt;div&gt;&lt;b&gt;&lt;i&gt;&lt;u&gt;&lt;span style=&quot;&quot;&gt;&lt;br&gt;&lt;/span&gt;&lt;/u&gt;&lt;/i&gt;&lt;/b&gt;&lt;/div&gt;" style="rounded=0;whiteSpace=wrap;html=1;align=left;labelBackgroundColor=#9999FF;" vertex="1" parent="IlKMJ6naBg7NHXf0W0cz-8">
          <mxGeometry y="100" width="470" height="150" as="geometry" />
        </mxCell>
        <mxCell id="IlKMJ6naBg7NHXf0W0cz-27" value="&lt;b&gt;&lt;i&gt;&lt;u&gt;Dados do Cartão: XXXXXXX&amp;nbsp; &amp;nbsp; &amp;nbsp; &amp;nbsp; &amp;nbsp; &amp;nbsp; &amp;nbsp; &amp;nbsp; &amp;nbsp; &amp;nbsp; &amp;nbsp; &amp;nbsp; &amp;nbsp; &amp;nbsp; &amp;nbsp; &amp;nbsp; &amp;nbsp; &amp;nbsp; &amp;nbsp; &amp;nbsp; &amp;nbsp; &amp;nbsp; &amp;nbsp; &amp;nbsp; &amp;nbsp; &amp;nbsp; &amp;nbsp; &amp;nbsp; &amp;nbsp; &amp;nbsp; &amp;nbsp; &amp;nbsp; &amp;nbsp; &amp;nbsp; &amp;nbsp; &amp;nbsp; &amp;nbsp; &amp;nbsp; &amp;nbsp; &amp;nbsp; &amp;nbsp; &amp;nbsp; &amp;nbsp; &amp;nbsp; &amp;nbsp; &amp;nbsp;&amp;nbsp;&lt;/u&gt;&lt;/i&gt;&lt;/b&gt;&lt;div&gt;&lt;b&gt;&lt;i&gt;&lt;u&gt;&lt;br&gt;&lt;/u&gt;&lt;/i&gt;&lt;/b&gt;&lt;div&gt;&lt;b&gt;&lt;i&gt;&lt;u&gt;Chave de segurança: XXXXXX&lt;/u&gt;&lt;/i&gt;&lt;/b&gt;&lt;/div&gt;&lt;div&gt;&lt;b&gt;&lt;i&gt;&lt;u&gt;&lt;span style=&quot;&quot;&gt;&lt;br&gt;&lt;/span&gt;&lt;/u&gt;&lt;/i&gt;&lt;/b&gt;&lt;/div&gt;&lt;div&gt;&lt;b&gt;&lt;i&gt;&lt;u&gt;Dados PIX: XXXXX&lt;/u&gt;&lt;/i&gt;&lt;/b&gt;&lt;/div&gt;&lt;div&gt;&lt;b&gt;&lt;i&gt;&lt;u&gt;CPF: XXXXXX&lt;/u&gt;&lt;/i&gt;&lt;/b&gt;&lt;/div&gt;&lt;div&gt;&lt;b&gt;&lt;i&gt;&lt;u&gt;&lt;span style=&quot;&quot;&gt;&lt;br&gt;&lt;/span&gt;&lt;/u&gt;&lt;/i&gt;&lt;/b&gt;&lt;/div&gt;&lt;div&gt;&lt;b&gt;&lt;i&gt;&lt;u&gt;Pagamento na entrega: Informar opção ( )&lt;/u&gt;&lt;/i&gt;&lt;/b&gt;&lt;/div&gt;&lt;div&gt;&lt;br&gt;&lt;/div&gt;&lt;/div&gt;&lt;div&gt;1- Debito&lt;/div&gt;&lt;div&gt;2- Credito&lt;/div&gt;&lt;div&gt;3- Voucher&lt;/div&gt;&lt;div&gt;&lt;b&gt;&lt;i&gt;&lt;u&gt;&lt;span style=&quot;&quot;&gt;&lt;br&gt;&lt;/span&gt;&lt;/u&gt;&lt;/i&gt;&lt;/b&gt;&lt;/div&gt;" style="rounded=0;whiteSpace=wrap;html=1;align=left;labelBackgroundColor=#FF0000;" vertex="1" parent="IlKMJ6naBg7NHXf0W0cz-8">
          <mxGeometry y="320" width="470" height="210" as="geometry" />
        </mxCell>
        <mxCell id="IlKMJ6naBg7NHXf0W0cz-17" value="WEB-Browser - TELA_01&amp;nbsp;" style="swimlane;html=1;startSize=20;horizontal=1;containerType=tree;glass=0;fillColor=#f8cecc;strokeColor=#b85450;swimlaneFillColor=#3333FF;" vertex="1" parent="1">
          <mxGeometry x="20" y="1250" width="740" height="280" as="geometry" />
        </mxCell>
        <mxCell id="IlKMJ6naBg7NHXf0W0cz-18" value="Meus Pedidos\sabores" style="rounded=0;whiteSpace=wrap;html=1;fillColor=#60a917;fontColor=#ffffff;strokeColor=#2D7600;" vertex="1" parent="IlKMJ6naBg7NHXf0W0cz-17">
          <mxGeometry y="90" width="120" height="60" as="geometry" />
        </mxCell>
        <mxCell id="IlKMJ6naBg7NHXf0W0cz-19" value="Formas de pagamento\credito&lt;div&gt;Pix\debito&lt;/div&gt;" style="rounded=0;whiteSpace=wrap;html=1;fillColor=#e51400;fontColor=#ffffff;strokeColor=#B20000;" vertex="1" parent="IlKMJ6naBg7NHXf0W0cz-17">
          <mxGeometry y="210" width="120" height="60" as="geometry" />
        </mxCell>
        <mxCell id="IlKMJ6naBg7NHXf0W0cz-20" value="Personalização de Cupcakes\tipos\&lt;div&gt;mix_sabores&lt;/div&gt;" style="rounded=0;whiteSpace=wrap;html=1;fillColor=#d0cee2;strokeColor=#56517e;" vertex="1" parent="IlKMJ6naBg7NHXf0W0cz-17">
          <mxGeometry x="620" y="90" width="120" height="60" as="geometry" />
        </mxCell>
        <mxCell id="IlKMJ6naBg7NHXf0W0cz-21" value="Suporte ao Cliente\reclamação\&lt;div&gt;pedidos incorretos\&lt;/div&gt;" style="rounded=0;whiteSpace=wrap;html=1;fillColor=#60a917;fontColor=#ffffff;strokeColor=#2D7600;" vertex="1" parent="IlKMJ6naBg7NHXf0W0cz-17">
          <mxGeometry x="310" y="150" width="120" height="60" as="geometry" />
        </mxCell>
        <mxCell id="IlKMJ6naBg7NHXf0W0cz-22" value="Perfil\dados pessoais\&lt;div&gt;foto&lt;/div&gt;" style="rounded=0;whiteSpace=wrap;html=1;fillColor=#ffcd28;strokeColor=#d79b00;gradientColor=#ffa500;" vertex="1" parent="IlKMJ6naBg7NHXf0W0cz-17">
          <mxGeometry x="620" y="210" width="120" height="60" as="geometry" />
        </mxCell>
        <mxCell id="IlKMJ6naBg7NHXf0W0cz-23" value="AUTOMATION CUPCAKES" style="rounded=0;whiteSpace=wrap;html=1;fontStyle=7;labelBackgroundColor=#FF6666;labelBorderColor=default;fillColor=#f5f5f5;gradientColor=#b3b3b3;strokeColor=#666666;" vertex="1" parent="IlKMJ6naBg7NHXf0W0cz-17">
          <mxGeometry x="130" y="20" width="480" height="65" as="geometry" />
        </mxCell>
      </root>
    </mxGraphModel>
  </diagram>
</mxfile>
